<?xml version="1.0" encoding="UTF-8" standalone="no"?>
<svg width="62px" height="99px" viewBox="0 0 62 99" version="1.1" xmlns="http://www.w3.org/2000/svg" xmlns:xlink="http://www.w3.org/1999/xlink" xmlns:sketch="http://www.bohemiancoding.com/sketch/ns">
    <!-- Generator: Sketch 3.4.4 (17249) - http://www.bohemiancoding.com/sketch -->
    <title>base</title>
    <desc>Created with Sketch.</desc>
    <defs></defs>
    <g id="Logo" stroke="none" stroke-width="1" fill="none" fill-rule="evenodd" sketch:type="MSPage">
        <g id="base" sketch:type="MSLayerGroup" fill="#000000">
            <g id="flask" sketch:type="MSShapeGroup">
                <path d="M31,99 C14.404,99 0.906,85.499 0.906,68.905 C0.906,55.862 9.474,44.19 21.842,40.239 L21.842,5.613 L21.729,5.613 C20.239,5.613 19.028,4.402 19.028,2.911 C19.028,1.42 20.239,0.209 21.729,0.209 L40.27,0.209 C41.76,0.209 42.973,1.42 42.973,2.911 C42.973,4.402 41.76,5.613 40.27,5.613 L40.16,5.613 L40.16,40.24 C52.527,44.191 61.094,55.864 61.094,68.906 C61.094,85.499 47.592,99 31,99 L31,99 Z M21.729,2.371 C21.432,2.371 21.19,2.614 21.19,2.912 C21.19,3.21 21.432,3.453 21.729,3.453 L24.002,3.453 L24.002,41.855 L23.223,42.081 C11.356,45.516 3.069,56.548 3.069,68.907 C3.069,84.309 15.598,96.841 31.001,96.841 C46.404,96.841 58.933,84.31 58.933,68.907 C58.933,56.549 50.646,45.516 38.779,42.081 L38,41.855 L38,3.452 L40.271,3.452 C40.57,3.452 40.812,3.209 40.812,2.911 C40.812,2.614 40.57,2.37 40.271,2.37 L21.729,2.37 L21.729,2.371 Z" id="Shape"></path>
            </g>
            <path d="M25.0582308,86.8053095 L30.3995385,72.0920833 L20,69.405619 L38.6897115,50 L31.8175769,64.8422857 L42.2166731,67.5291905 L25.0582308,86.8053095 Z" id="s" sketch:type="MSShapeGroup"></path>
        </g>
    </g>
</svg>